<mxfile host="app.diagrams.net" modified="2023-09-22T07:37:27.811Z" agent="Mozilla/5.0 (Macintosh; Intel Mac OS X 10_15_7) AppleWebKit/537.36 (KHTML, like Gecko) Chrome/116.0.0.0 Safari/537.36" version="21.8.0" etag="iP150GGw1ot6W2h-F9C2" type="github">
  <diagram name="第 1 页" id="t6K-cKXUrIrt6jfmWiDf">
    <mxGraphModel>
      <root>
        <mxCell id="0" />
        <mxCell id="1" parent="0" />
      </root>
    </mxGraphModel>
  </diagram>
</mxfile>
